<svg width="26" height="27" viewBox="0 0 26 27" fill="none" xmlns="http://www.w3.org/2000/svg">
    <path d="M18.0633 10.3757C18.1754 10.2712 18.2658 10.1456 18.3294 10.0062C18.3929 9.86679 18.4284 9.71621 18.4338 9.56308C18.4391 9.40995 18.4143 9.25726 18.3606 9.11373C18.307 8.97021 18.2256 8.83865 18.1211 8.72658C18.0166 8.61451 17.8911 8.52411 17.7516 8.46056C17.6122 8.397 17.4616 8.36153 17.3085 8.35617C17.1554 8.35081 17.0027 8.37566 16.8592 8.4293C16.7156 8.48295 16.5841 8.56434 16.472 8.66883L13.0583 11.8515L9.87568 8.43666C9.66272 8.21855 9.37286 8.09245 9.06811 8.08534C8.76335 8.07823 8.46793 8.19069 8.24503 8.39864C8.02214 8.60659 7.88949 8.89352 7.87547 9.19803C7.86145 9.50254 7.96717 9.80044 8.17001 10.028L11.3527 13.4417L7.93784 16.6243C7.82181 16.7278 7.72762 16.8533 7.6608 16.9937C7.59397 17.134 7.55587 17.2863 7.54872 17.4416C7.54157 17.5968 7.56552 17.752 7.61916 17.8979C7.67281 18.0437 7.75506 18.1774 7.8611 18.2911C7.96713 18.4047 8.09481 18.4961 8.23663 18.5597C8.37845 18.6233 8.53156 18.658 8.68695 18.6616C8.84235 18.6652 8.9969 18.6377 9.14153 18.5808C9.28616 18.5239 9.41796 18.4386 9.52918 18.33L12.9428 15.1485L16.1255 18.5622C16.2283 18.6803 16.3538 18.7766 16.4945 18.8452C16.6353 18.9139 16.7885 18.9535 16.9448 18.9617C17.1012 18.9699 17.2577 18.9465 17.4048 18.8929C17.552 18.8394 17.6869 18.7567 17.8014 18.6499C17.916 18.5432 18.0078 18.4144 18.0716 18.2713C18.1353 18.1283 18.1696 17.9739 18.1723 17.8173C18.1751 17.6607 18.1463 17.5052 18.0877 17.3599C18.0291 17.2147 17.9419 17.0828 17.8312 16.972L14.6497 13.5583L18.0633 10.3757Z" fill="#F24E1E"/>
    <path fill-rule="evenodd" clip-rule="evenodd" d="M0.166626 13.5C0.166626 6.41249 5.91246 0.666656 13 0.666656C20.0875 0.666656 25.8333 6.41249 25.8333 13.5C25.8333 20.5875 20.0875 26.3333 13 26.3333C5.91246 26.3333 0.166626 20.5875 0.166626 13.5ZM13 24C11.6211 24 10.2557 23.7284 8.98178 23.2007C7.70786 22.673 6.55035 21.8996 5.57534 20.9246C4.60032 19.9496 3.8269 18.7921 3.29922 17.5182C2.77155 16.2442 2.49996 14.8789 2.49996 13.5C2.49996 12.1211 2.77155 10.7557 3.29922 9.48181C3.8269 8.20789 4.60032 7.05038 5.57534 6.07537C6.55035 5.10035 7.70786 4.32693 8.98178 3.79925C10.2557 3.27158 11.6211 2.99999 13 2.99999C15.7847 2.99999 18.4554 4.10624 20.4246 6.07537C22.3937 8.0445 23.5 10.7152 23.5 13.5C23.5 16.2848 22.3937 18.9555 20.4246 20.9246C18.4554 22.8937 15.7847 24 13 24Z" fill="#F24E1E"/>
</svg>